<svg width="21" height="21" viewBox="0 0 21 21" fill="none" xmlns="http://www.w3.org/2000/svg">
<path fill-rule="evenodd" clip-rule="evenodd" d="M10.787 0.531738C5.2641 0.531738 0.786987 5.0089 0.786987 10.5317C0.786987 16.0546 5.2641 20.5317 10.787 20.5317C16.3098 20.5317 20.787 16.0546 20.787 10.5317C20.787 5.0089 16.3098 0.531738 10.787 0.531738V0.531738ZM9.75097 19.0412C7.85367 18.814 6.09819 17.9647 4.72602 16.5926C3.10708 14.9736 2.21554 12.8212 2.21554 10.5316C2.21554 8.47058 2.93843 6.52087 4.26367 4.97111C4.2978 5.38058 4.38208 5.81957 4.36049 6.13337C4.28165 7.27736 4.16876 7.99332 4.83838 8.95846C5.09924 9.33438 5.16333 9.87327 5.2903 10.3084C5.41448 10.734 5.91059 10.9573 6.25275 11.2196C6.94309 11.7488 7.60352 12.364 8.33554 12.8299C8.81867 13.1373 9.12045 13.2902 8.97896 13.8798C8.86516 14.3539 8.83338 14.646 8.58809 15.0684C8.51323 15.1973 8.87064 16.026 8.98958 16.145C9.35006 16.5054 9.70775 16.8361 10.1007 17.1606C10.7099 17.6639 10.0415 18.3179 9.75097 19.0412V19.0412ZM16.8479 16.5926C15.6156 17.8249 14.0739 18.6352 12.3981 18.9522C12.6356 18.3649 13.0585 17.8431 13.4508 17.5406C13.792 17.2773 14.2193 16.7709 14.3975 16.3698C14.5756 15.9693 14.8115 15.622 15.0503 15.2536C15.3899 14.7296 14.2128 13.9394 13.8314 13.7738C12.973 13.4011 12.3269 12.8983 11.564 12.3615C11.0205 11.9791 9.91705 12.5612 9.30344 12.2934C8.46301 11.9264 7.77061 11.2888 7.04008 10.7386C6.28623 10.1709 6.32267 9.50902 6.32267 8.67147C6.91316 8.69325 7.75316 8.50806 8.14517 8.98291C8.26888 9.13277 8.69421 9.80224 8.97892 9.56435C9.21152 9.36998 8.80657 8.59084 8.72835 8.40767C8.48772 7.84445 9.27662 7.62479 9.68041 7.24286C10.2073 6.74459 11.3376 5.96315 11.2483 5.60599C11.159 5.24882 10.1173 4.2369 9.50556 4.39479C9.41388 4.41844 8.60666 5.26483 8.4507 5.39762C8.45484 5.12137 8.45897 4.84517 8.4632 4.56892C8.46585 4.3945 8.13782 4.21546 8.15306 4.10296C8.19152 3.81863 8.98296 3.30262 9.17984 3.07618C9.04191 2.98998 8.57123 2.5857 8.42878 2.64503C8.08388 2.78878 7.69436 2.88781 7.34945 3.03152C7.34945 2.9119 7.33493 2.79955 7.31763 2.68858C8.00878 2.38257 8.74008 2.16979 9.49599 2.05628L10.1731 2.32839L10.6512 2.89575L11.1283 3.38772L11.5454 3.52209L12.2078 2.89733L12.037 2.45132V2.05041C13.3471 2.2407 14.5843 2.72945 15.6679 3.4831C15.474 3.50046 15.261 3.52897 15.0207 3.55955C14.9214 3.50089 14.794 3.47426 14.6858 3.43344C14.9998 4.10854 15.3273 4.7743 15.66 5.44046C16.0155 6.15205 16.8039 6.91531 16.9424 7.66647C17.1056 8.55185 16.9923 9.35608 17.0816 10.3978C17.1676 11.4009 18.2126 12.5407 18.2126 12.5407C18.2126 12.5407 18.6951 12.705 19.0964 12.6478C18.7223 14.1277 17.9554 15.485 16.8479 16.5926V16.5926Z" fill="white"/>
</svg>
