<svg width="120" height="120" viewBox="0 0 120 120" fill="none" xmlns="http://www.w3.org/2000/svg">
<circle cx="71.745" cy="44.6863" r="8.30383" stroke="white" stroke-width="3"/>
<path d="M90.8018 54.0651L89.8329 55.2101V55.2101L90.8018 54.0651ZM91.3156 60.2309L90.1706 59.262V59.262L91.3156 60.2309ZM84.636 54.5789L85.7811 55.5478L85.7811 55.5478L84.636 54.5789ZM77.9761 59.3908L78.4725 60.8063L77.9761 59.3908ZM64.5317 57.7765L63.8807 59.1278V59.1278L64.5317 57.7765ZM33.6077 62.5674L32.2192 61.9998H32.2192L33.6077 62.5674ZM36.002 68.2726L36.5695 66.8841L36.5695 66.8841L36.002 68.2726ZM41.7071 65.8783L40.3186 65.3107L40.3186 65.3107L41.7071 65.8783ZM56.1567 63.7864L57.2174 64.8471C57.5855 64.479 57.7364 63.9465 57.6162 63.44C57.4959 62.9335 57.1217 62.5256 56.6275 62.3622L56.1567 63.7864ZM28.9303 91.0129L29.991 92.0735H29.991L28.9303 91.0129ZM28.9303 97.2L29.991 96.1394L29.991 96.1394L28.9303 97.2ZM35.1175 97.2L34.0569 96.1394L34.0569 96.1394L35.1175 97.2ZM51.2288 81.0888L51.5311 79.6196C51.037 79.5179 50.5248 79.6714 50.1681 80.0281L51.2288 81.0888ZM56.8117 82.4862L56.3569 83.9156H56.3569L56.8117 82.4862ZM60.6236 84.1618L61.8001 85.0924C62.0563 84.7685 62.1676 84.3533 62.1078 83.9447C62.0481 83.5361 61.8225 83.1701 61.4842 82.9332L60.6236 84.1618ZM55.3738 88.1781L54.6084 86.8881L55.3738 88.1781ZM53.8437 94.1731L55.1337 93.4077V93.4077L53.8437 94.1731ZM59.8386 95.7032L59.0732 94.4132L59.0732 94.4132L59.8386 95.7032ZM68.8495 87.422L70.2057 88.0628L68.8495 87.422ZM69.4108 81.9837L67.963 82.3759L69.4108 81.9837ZM66.7667 77.8806L65.7689 79.0006L66.7667 77.8806ZM59.465 74.1482L59.9199 72.7188V72.7188L59.465 74.1482ZM58.472 73.8456L57.4113 72.7849C57.0366 73.1596 56.8874 73.7042 57.0188 74.2175C57.1503 74.7309 57.5428 75.1368 58.0514 75.2854L58.472 73.8456ZM64.9366 67.381L65.4144 65.9591C64.8746 65.7777 64.2786 65.9176 63.8759 66.3203L64.9366 67.381ZM80.8717 67.6478L80.3753 66.2323L80.8717 67.6478ZM89.8329 55.2101C91.045 56.2358 91.1962 58.0498 90.1706 59.262L92.4607 61.1998C94.5566 58.7228 94.2477 55.0158 91.7707 52.92L89.8329 55.2101ZM85.7811 55.5478C86.8067 54.3357 88.6208 54.1845 89.8329 55.2101L91.7707 52.92C89.2938 50.8241 85.5868 51.133 83.4909 53.61L85.7811 55.5478ZM78.4725 60.8063C81.9555 59.5849 84.3535 57.235 85.7811 55.5478L83.4909 53.61C82.224 55.1073 80.2439 57.006 77.4797 57.9753L78.4725 60.8063ZM63.8807 59.1278C70.3378 62.2384 75.0916 61.9919 78.4725 60.8063L77.4797 57.9753C74.9223 58.8722 70.9939 59.2245 65.1827 56.4251L63.8807 59.1278ZM34.9962 63.135C36.4965 59.4647 39.9823 56.725 45.0038 55.7538C50.0352 54.7807 56.5726 55.6073 63.8807 59.1278L65.1827 56.4251C57.4326 52.6917 50.2361 51.6863 44.4341 52.8084C38.6222 53.9325 34.1751 57.2152 32.2192 61.9998L34.9962 63.135ZM36.5695 66.8841C35.0998 66.2833 34.3954 64.6048 34.9962 63.135L32.2192 61.9998C30.9915 65.0033 32.431 68.4333 35.4344 69.661L36.5695 66.8841ZM40.3186 65.3107C39.7178 66.7805 38.0393 67.4849 36.5695 66.8841L35.4344 69.661C38.4378 70.8888 41.8678 69.4493 43.0956 66.4459L40.3186 65.3107ZM56.6275 62.3622C46.2837 58.9431 41.2205 63.1046 40.3186 65.3107L43.0956 66.4459C43.0883 66.4637 43.1193 66.3885 43.2391 66.2382C43.3509 66.0978 43.5182 65.9196 43.7498 65.725C44.2109 65.3376 44.9093 64.9002 45.8894 64.5703C47.8342 63.9156 50.9823 63.6559 55.686 65.2107L56.6275 62.3622ZM55.0961 62.7258L27.8697 89.9522L29.991 92.0735L57.2174 64.8471L55.0961 62.7258ZM27.8697 89.9522C25.5753 92.2465 25.5753 95.9664 27.8697 98.2607L29.991 96.1394C28.8682 95.0166 28.8682 93.1963 29.991 92.0735L27.8697 89.9522ZM27.8697 98.2607C30.164 100.555 33.8838 100.555 36.1782 98.2607L34.0569 96.1394C32.9341 97.2621 31.1138 97.2621 29.991 96.1394L27.8697 98.2607ZM36.1782 98.2607L52.2894 82.1495L50.1681 80.0281L34.0569 96.1394L36.1782 98.2607ZM50.9264 82.558C52.7173 82.9266 54.6296 83.3659 56.3569 83.9156L57.2666 81.0569C55.3886 80.4593 53.3552 79.995 51.5311 79.6196L50.9264 82.558ZM56.3569 83.9156C58.1398 84.483 59.235 85.0205 59.763 85.3903L61.4842 82.9332C60.5947 82.3101 59.1689 81.6622 57.2666 81.0569L56.3569 83.9156ZM59.4472 83.2312C59.0167 83.7754 57.7475 85.0255 54.6084 86.8881L56.1392 89.4681C59.4318 87.5145 61.0485 86.0424 61.8001 85.0924L59.4472 83.2312ZM54.6084 86.8881C51.8179 88.5437 50.898 92.148 52.5536 94.9385L55.1337 93.4077C54.3235 92.0421 54.7737 90.2783 56.1392 89.4681L54.6084 86.8881ZM52.5536 94.9385C54.2093 97.7289 57.8136 98.6489 60.604 96.9932L59.0732 94.4132C57.7077 95.2234 55.9439 94.7732 55.1337 93.4077L52.5536 94.9385ZM60.604 96.9932C64.9826 94.3954 68.5656 91.5339 70.2057 88.0628L67.4932 86.7812C66.2615 89.3881 63.3692 91.8643 59.0732 94.4132L60.604 96.9932ZM70.2057 88.0628C71.1305 86.1055 71.4746 83.8649 70.8586 81.5914L67.963 82.3759C68.3651 83.8602 68.161 85.3679 67.4932 86.7812L70.2057 88.0628ZM70.8586 81.5914C70.2727 79.4291 68.9834 77.8464 67.7645 76.7606L65.7689 79.0006C66.7057 79.8352 67.5754 80.9454 67.963 82.3759L70.8586 81.5914ZM67.7645 76.7606C65.4674 74.7142 62.3571 73.4944 59.9199 72.7188L59.0102 75.5776C61.3653 76.327 63.9655 77.394 65.7689 79.0006L67.7645 76.7606ZM59.9199 72.7188C59.5783 72.6101 59.2353 72.5058 58.8926 72.4057L58.0514 75.2854C58.3729 75.3793 58.693 75.4767 59.0102 75.5776L59.9199 72.7188ZM59.5327 74.9062L65.9972 68.4417L63.8759 66.3203L57.4113 72.7849L59.5327 74.9062ZM80.3753 66.2323C76.2956 67.663 71.3071 67.9395 65.4144 65.9591L64.4587 68.8028C70.9584 70.9872 76.6332 70.7238 81.3681 69.0633L80.3753 66.2323ZM90.1706 59.262C88.4348 61.3133 85.2358 64.5279 80.3753 66.2323L81.3681 69.0633C86.9472 67.1068 90.5642 63.4411 92.4607 61.1998L90.1706 59.262Z" fill="white"/>
<path d="M19.6552 34.9084H21.1552C21.1552 34.2473 20.7223 33.6641 20.0895 33.4727L19.6552 34.9084ZM100.345 34.9084L99.9104 33.4727C99.2777 33.6641 98.8448 34.2473 98.8448 34.9084H100.345ZM98.8448 105.031C98.8448 105.859 99.5164 106.531 100.345 106.531C101.173 106.531 101.845 105.859 101.845 105.031H98.8448ZM18.1552 105.05C18.1552 105.879 18.8267 106.55 19.6552 106.55C20.4836 106.55 21.1552 105.879 21.1552 105.05H18.1552ZM6.5 24.4249C6.5 23.0696 7.49401 21.4328 10.1511 19.671C12.7502 17.9476 16.61 16.3375 21.5142 14.9621C31.3016 12.2172 44.9089 10.5 60 10.5V7.5C44.7154 7.5 30.8227 9.23576 20.7041 12.0736C15.6552 13.4895 11.4605 15.2032 8.49324 17.1707C5.58403 19.0997 3.5 21.5207 3.5 24.4249H6.5ZM60 10.5C75.0911 10.5 88.6984 12.2172 98.4858 14.9621C103.39 16.3375 107.25 17.9476 109.849 19.671C112.506 21.4328 113.5 23.0696 113.5 24.4249H116.5C116.5 21.5207 114.416 19.0997 111.507 17.1707C108.54 15.2032 104.345 13.4895 99.2959 12.0736C89.1773 9.23576 75.2846 7.5 60 7.5V10.5ZM20.0895 33.4727C15.6156 32.1191 12.1209 30.5665 9.77778 28.9244C7.39116 27.2518 6.5 25.7106 6.5 24.4249H3.5C3.5 27.1871 5.38885 29.5119 8.05604 31.3811C10.7667 33.2808 14.5996 34.946 19.2208 36.3441L20.0895 33.4727ZM113.5 24.4249C113.5 25.7106 112.609 27.2518 110.222 28.9244C107.879 30.5665 104.384 32.1191 99.9104 33.4727L100.779 36.3441C105.4 34.946 109.233 33.2808 111.944 31.3811C114.611 29.5119 116.5 27.1871 116.5 24.4249H113.5ZM98.8448 34.9084V105.031H101.845V34.9084H98.8448ZM18.1552 34.9084V105.05H21.1552V34.9084H18.1552Z" fill="white"/>
<path d="M5 24.578V94.5781C5 103.097 29.6243 110.003 60 110.003C90.3757 110.003 115 103.097 115 94.5781V24.6599" stroke="white" stroke-width="3" stroke-linecap="round"/>
<path d="M115 58.9298C115 63.0167 109.463 66.7409 100.378 69.5446" stroke="white" stroke-width="3" stroke-linecap="round"/>
<path d="M35 10.767V24.578" stroke="white" stroke-width="3" stroke-linecap="round"/>
<path d="M85 10.767V24.578" stroke="white" stroke-width="3" stroke-linecap="round"/>
<path d="M5 58.9298C5 63.0237 10.5561 66.7537 19.6689 69.559" stroke="white" stroke-width="3" stroke-linecap="round"/>
</svg>
