<svg width="120" height="120" viewBox="0 0 120 120" fill="none" xmlns="http://www.w3.org/2000/svg">
<path d="M18.1336 60.7543H19.6336C19.6336 60.0932 19.2008 59.51 18.568 59.3185L18.1336 60.7543ZM101.458 60.7543L101.023 59.3185C100.391 59.51 99.9577 60.0932 99.9577 60.7543H101.458ZM99.9577 96.7865C99.9577 97.6149 100.629 98.2865 101.458 98.2865C102.286 98.2865 102.958 97.6149 102.958 96.7865H99.9577ZM16.6336 96.5243C16.6336 97.3527 17.3052 98.0243 18.1336 98.0243C18.9621 98.0243 19.6336 97.3527 19.6336 96.5243H16.6336ZM4.5 49.9285C4.5 48.5036 5.54426 46.8006 8.29221 44.9785C10.9822 43.1949 14.9735 41.5306 20.0401 40.1096C30.1525 37.2736 44.2087 35.5 59.7957 35.5V32.5C44.0152 32.5 29.6736 34.2921 19.23 37.2211C14.0186 38.6826 9.69246 40.4505 6.63436 42.4782C3.63428 44.4675 1.5 46.9548 1.5 49.9285H4.5ZM59.7957 35.5C75.3826 35.5 89.4389 37.2736 99.5512 40.1096C104.618 41.5306 108.609 43.1949 111.299 44.9785C114.047 46.8006 115.091 48.5036 115.091 49.9285H118.091C118.091 46.9548 115.957 44.4675 112.957 42.4782C109.899 40.4505 105.573 38.6826 100.361 37.2211C89.9177 34.2921 75.5761 32.5 59.7957 32.5V35.5ZM18.568 59.3185C13.9456 57.92 10.3313 56.3149 7.90567 54.615C5.43654 52.8846 4.5 51.2803 4.5 49.9285H1.5C1.5 52.7568 3.43424 55.1447 6.18392 57.0717C8.97712 59.0293 12.9296 60.7469 17.6993 62.19L18.568 59.3185ZM115.091 49.9285C115.091 51.2803 114.155 52.8846 111.686 54.615C109.26 56.3149 105.646 57.92 101.023 59.3185L101.892 62.19C106.662 60.7469 110.614 59.0293 113.407 57.0717C116.157 55.1447 118.091 52.7568 118.091 49.9285H115.091ZM99.9577 60.7543V96.7865H102.958V60.7543H99.9577ZM16.6336 60.7543V96.5243H19.6336V60.7543H16.6336Z" fill="white"/>
<path d="M116.591 50.1712L117 85.8204C117 90.0604 111.093 93.9134 101.461 96.7676" stroke="white" stroke-width="3" stroke-linecap="round"/>
<path d="M18.1504 78.993C28.5404 75.7849 43.5335 73.7706 60.2041 73.7706C76.4531 73.7706 91.1083 75.6843 101.461 78.7519" stroke="white" stroke-width="3" stroke-linecap="round"/>
<path d="M41.6532 41.8713C45.0841 41.2424 52.7555 40.5388 60 40.5388C67.2445 40.5388 74.9159 41.2424 78.3468 41.8713C79.1921 42.0263 79.8951 42.5269 80.2687 43.2333C83.1973 48.7719 85.0825 60.0473 84.9972 64.8846C84.906 70.0595 81.0001 73.0306 76.0696 72.9999C69.9194 72.9617 68.1506 64.8774 66.843 62.1344H53.1576C51.8499 64.8774 50.0806 72.9618 43.9304 72.9999C38.9999 73.0305 35.094 70.0595 35.0028 64.8846C34.9175 60.0473 36.8027 48.7719 39.7313 43.2333C40.1049 42.5269 40.8079 42.0263 41.6532 41.8713Z" stroke="white" stroke-width="3" stroke-linecap="round" stroke-linejoin="round"/>
<path d="M49.6555 47.697V54.7915" stroke="white" stroke-width="3" stroke-linecap="round" stroke-linejoin="round"/>
<path d="M53.5566 51.2446L45.7521 51.2446" stroke="white" stroke-width="3" stroke-linecap="round" stroke-linejoin="round"/>
<path d="M60.1987 23V40.4536" stroke="white" stroke-width="3" stroke-linecap="round" stroke-linejoin="round"/>
<path d="M71.1057 54.6742C69.0218 54.6742 67.3325 53.1387 67.3325 51.2444C67.3325 49.3502 69.0218 47.8146 71.1057 47.8146" stroke="white" stroke-width="3"/>
<path d="M71.1057 54.6742C73.1896 54.6742 74.8789 53.1387 74.8789 51.2444C74.8789 49.3502 73.1896 47.8146 71.1057 47.8146" stroke="white" stroke-width="3"/>
<path d="M3 50.0863L3.40901 85.82C3.40901 89.9418 8.9912 93.6979 18.151 96.5261" stroke="white" stroke-width="3" stroke-linecap="round"/>
</svg>
