<svg width="120" height="120" viewBox="0 0 120 120" fill="none" xmlns="http://www.w3.org/2000/svg">
<path d="M97.9434 70.22C103.466 70.22 107.943 65.7428 107.943 60.22C107.943 54.6971 103.466 50.22 97.9434 50.22C92.4205 50.22 87.9434 54.6971 87.9434 60.22C87.9434 65.7428 92.4205 70.22 97.9434 70.22Z" stroke="white" stroke-width="3" stroke-linecap="round" stroke-linejoin="round"/>
<path d="M115.443 87.72C115.443 83.0787 113.6 78.6275 110.318 75.3456C107.036 72.0637 102.585 70.22 97.9434 70.22C93.3021 70.22 88.8509 72.0637 85.569 75.3456C82.2871 78.6275 80.4434 83.0787 80.4434 87.72V95.22H87.9434L90.4434 115.22H105.443L107.943 95.22H115.443V87.72Z" stroke="white" stroke-width="3" stroke-linecap="round" stroke-linejoin="round"/>
<path d="M28.2168 32.4127C32.189 32.4127 35.4092 29.1926 35.4092 25.2203C35.4092 21.2481 32.189 18.028 28.2168 18.028C24.2446 18.028 21.0244 21.2481 21.0244 25.2203C21.0244 29.1926 24.2446 32.4127 28.2168 32.4127Z" stroke="white" stroke-width="3" stroke-linecap="round" stroke-linejoin="round"/>
<path d="M28.2168 72.4127C32.189 72.4127 35.4092 69.1926 35.4092 65.2203C35.4092 61.2481 32.189 58.028 28.2168 58.028C24.2446 58.028 21.0244 61.2481 21.0244 65.2203C21.0244 69.1926 24.2446 72.4127 28.2168 72.4127Z" stroke="white" stroke-width="3" stroke-linecap="round" stroke-linejoin="round"/>
<path d="M77.5869 32.4127C81.5592 32.4127 84.7793 29.1926 84.7793 25.2203C84.7793 21.2481 81.5592 18.028 77.5869 18.028C73.6147 18.028 70.3945 21.2481 70.3945 25.2203C70.3945 29.1926 73.6147 32.4127 77.5869 32.4127Z" stroke="white" stroke-width="3" stroke-linecap="round" stroke-linejoin="round"/>
<path d="M40.8029 45C40.8029 41.6618 39.4768 38.4603 37.1163 36.0999C34.7559 33.7394 31.5544 32.4133 28.2162 32.4133C24.878 32.4133 21.6769 33.7394 19.3164 36.0999C16.956 38.4603 15.6299 41.6618 15.6299 45" stroke="white" stroke-width="3" stroke-linecap="round" stroke-linejoin="round"/>
<path d="M40.8029 85C40.8029 81.6618 39.4768 78.4603 37.1163 76.0999C34.7559 73.7394 31.5544 72.4133 28.2162 72.4133C24.878 72.4133 21.6769 73.7394 19.3164 76.0999C16.956 78.4603 15.6299 81.6618 15.6299 85" stroke="white" stroke-width="3" stroke-linecap="round" stroke-linejoin="round"/>
<path d="M86.4864 36.0999C84.126 33.7394 80.9245 32.4133 77.5863 32.4133C74.2481 32.4133 71.047 33.7394 68.6866 36.0999C66.3261 38.4603 65 41.6618 65 45" stroke="white" stroke-width="3" stroke-linecap="round" stroke-linejoin="round"/>
<path d="M100 30V7C100 5.89543 99.1046 5 98 5H7C5.89543 5 5 5.89543 5 7V83C5 84.1046 5.89543 85 7 85H65" stroke="white" stroke-width="3" stroke-linecap="round"/>
<path d="M52.5 5V85" stroke="white" stroke-width="3"/>
<path d="M5 45H75" stroke="white" stroke-width="3" stroke-linecap="round"/>
</svg>
