<svg width="120" height="120" viewBox="0 0 120 120" fill="none" xmlns="http://www.w3.org/2000/svg">
<path d="M22.3053 36.9613C6.86107 41.0996 6.44856 55.0044 8.17285 61.4395C11.6214 74.3097 19.3826 80.9665 32.651 75.572C49.2365 68.8288 57.6627 57.3749 55.3636 48.7947C53.0646 40.2146 41.6106 31.7885 22.3053 36.9613Z" stroke="white" stroke-width="3" stroke-linecap="round"/>
<path d="M97.6947 10.4719C113.139 14.6102 113.551 28.515 111.827 34.9501C108.379 47.8203 100.617 54.4771 87.349 49.0826C70.7635 42.3395 62.3373 30.8855 64.6364 22.3054C66.9354 13.7252 78.3894 5.29908 97.6947 10.4719Z" stroke="white" stroke-width="3" stroke-linecap="round"/>
<path d="M8.17163 61.4396L20.2416 106.485C21.1995 110.06 25.2604 116.636 33.8406 114.337C42.4207 112.038 42.6499 104.313 41.692 100.738L38.2434 87.8675C41.2522 80.3715 47.233 70.3652 51.9323 61.7531" stroke="white" stroke-width="3" stroke-linecap="round" stroke-linejoin="round"/>
<path d="M111.828 34.9502L99.7584 79.996C98.8005 83.571 94.7396 90.1464 86.1594 87.8473C77.5793 85.5483 77.3501 77.8234 78.308 74.2483L81.7566 61.3781C78.7478 53.8822 71.8918 42.6536 67.1925 34.0415" stroke="white" stroke-width="3" stroke-linecap="round" stroke-linejoin="round"/>
<path d="M41.1169 98.5931L49.9103 96.2369C50.9772 95.951 51.6104 94.8543 51.3245 93.7874L48.9101 84.7767C48.6246 83.7114 47.5307 83.0782 46.4648 83.3614L39.3358 85.2549" stroke="white" stroke-width="3" stroke-linecap="round"/>
<path d="M78.8827 72.1029L70.0894 69.7467C69.0225 69.4608 68.3893 68.3642 68.6752 67.2972L71.0856 58.3016C71.3726 57.2304 72.4763 56.5973 73.5459 56.8903L80.642 58.8343" stroke="white" stroke-width="3" stroke-linecap="round"/>
<path d="M83.6106 26.9821C80.9986 26.9821 78.8811 24.8646 78.8811 22.2526C78.8811 19.6405 80.9986 17.5231 83.6106 17.5231" stroke="white" stroke-width="3"/>
<path d="M83.6106 26.9821C86.2226 26.9821 88.3401 24.8646 88.3401 22.2526C88.3401 19.6405 86.2226 17.5231 83.6106 17.5231" stroke="white" stroke-width="3"/>
<path d="M95.5186 39.96C92.9065 39.96 90.7891 37.8425 90.7891 35.2305C90.7891 32.6184 92.9065 30.501 95.5186 30.501" stroke="white" stroke-width="3"/>
<path d="M95.5186 39.96C98.1306 39.96 100.248 37.8425 100.248 35.2305C100.248 32.6184 98.1306 30.501 95.5186 30.501" stroke="white" stroke-width="3"/>
<path d="M31.6113 48.4065C31.4013 45.803 33.3417 43.5221 35.9452 43.3121C38.5488 43.102 40.8297 45.0424 41.0397 47.646" stroke="white" stroke-width="3"/>
<path d="M31.6109 48.4066C31.821 51.0102 34.1018 52.9505 36.7054 52.7405C39.309 52.5304 41.2493 50.2496 41.0393 47.646" stroke="white" stroke-width="3"/>
<path d="M19.6328 61.3197C19.4228 58.7162 21.3631 56.4353 23.9667 56.2253C26.5703 56.0152 28.8512 57.9556 29.0612 60.5592" stroke="white" stroke-width="3"/>
<path d="M19.6336 61.3198C19.8437 63.9234 22.1245 65.8637 24.7281 65.6537C27.3317 65.4437 29.272 63.1628 29.062 60.5592" stroke="white" stroke-width="3"/>
</svg>
