<svg width="120" height="120" viewBox="0 0 120 120" fill="none" xmlns="http://www.w3.org/2000/svg">
<path d="M43.3235 82.2804V43.9052C43.3268 43.2632 43.4999 42.6334 43.825 42.0797C44.1502 41.5261 44.616 41.0682 45.1751 40.7526C45.7342 40.4369 46.3669 40.2747 47.0089 40.2824C47.651 40.29 48.2796 40.4673 48.831 40.7961L81.6988 59.8949C82.2521 60.2146 82.7116 60.6744 83.0311 61.2279C83.3505 61.7814 83.5187 62.4093 83.5187 63.0484C83.5187 63.6875 83.3505 64.3154 83.0311 64.8689C82.7116 65.4224 82.2521 65.8822 81.6988 66.2019L48.831 85.3895C48.2796 85.7183 47.651 85.8956 47.0089 85.9032C46.3669 85.9109 45.7342 85.7487 45.1751 85.433C44.616 85.1174 44.1502 84.6595 43.825 84.1059C43.4999 83.5522 43.3268 82.9224 43.3235 82.2804V82.2804Z" stroke="white" stroke-width="3" stroke-linecap="round" stroke-linejoin="round"/>
<path d="M18.1881 34.8505H19.6881C19.6881 34.1894 19.2553 33.6062 18.6225 33.4148L18.1881 34.8505ZM101.812 34.8505L101.378 33.4148C100.745 33.6062 100.312 34.1894 100.312 34.8505H101.812ZM100.312 107.523C100.312 108.351 100.983 109.023 101.812 109.023C102.64 109.023 103.312 108.351 103.312 107.523H100.312ZM16.6881 107.543C16.6881 108.372 17.3597 109.043 18.1881 109.043C19.0165 109.043 19.6881 108.372 19.6881 107.543H16.6881ZM4.5 23.9858C4.5 22.553 5.54998 20.8425 8.30827 19.0135C11.0085 17.2231 15.0149 15.5525 20.1 14.1264C30.2493 11.28 44.3566 9.5 60 9.5V6.5C44.1631 6.5 29.7705 8.29854 19.2899 11.2378C14.06 12.7046 9.71885 14.4787 6.65041 16.5132C3.64 18.5093 1.5 21.0042 1.5 23.9858H4.5ZM60 9.5C75.6434 9.5 89.7507 11.28 99.9 14.1264C104.985 15.5525 108.991 17.2231 111.692 19.0135C114.45 20.8425 115.5 22.553 115.5 23.9858H118.5C118.5 21.0042 116.36 18.5093 113.35 16.5132C110.281 14.4787 105.94 12.7046 100.71 11.2378C90.2295 8.29854 75.8369 6.5 60 6.5V9.5ZM18.6225 33.4148C13.9832 32.0112 10.3552 30.4001 7.92022 28.6936C5.44171 26.9566 4.5 25.3451 4.5 23.9858H1.5C1.5 26.8217 3.4394 29.2167 6.19847 31.1503C9.00106 33.1144 12.9671 34.8381 17.7537 36.2863L18.6225 33.4148ZM115.5 23.9858C115.5 25.3451 114.558 26.9566 112.08 28.6936C109.645 30.4001 106.017 32.0112 101.378 33.4148L102.246 36.2863C107.033 34.8381 110.999 33.1144 113.802 31.1503C116.561 29.2167 118.5 26.8217 118.5 23.9858H115.5ZM100.312 34.8505V107.523H103.312V34.8505H100.312ZM16.6881 34.8505V107.543H19.6881V34.8505H16.6881Z" fill="white"/>
<path d="M3 24.1443V96.6898C3 105.518 28.5198 112.676 60 112.676C91.4802 112.676 117 105.518 117 96.6898V24.2291" stroke="white" stroke-width="3" stroke-linecap="round"/>
<path d="M117 59.7455C117 63.981 111.262 67.8407 101.846 70.7462" stroke="white" stroke-width="3" stroke-linecap="round"/>
<path d="M28.5858 83.7178C24.7794 84.4234 21.2933 85.2536 18.2014 86.1876" stroke="white" stroke-width="3" stroke-linecap="round"/>
<path d="M91.4148 83.7178C95.2212 84.4234 98.7073 85.2536 101.799 86.1876" stroke="white" stroke-width="3" stroke-linecap="round"/>
<path d="M34.0908 9.83118V24.1444" stroke="white" stroke-width="3" stroke-linecap="round"/>
<path d="M85.9092 9.83118V24.1444" stroke="white" stroke-width="3" stroke-linecap="round"/>
<path d="M3 59.7455C3 63.9883 8.75816 67.8539 18.2024 70.7612" stroke="white" stroke-width="3" stroke-linecap="round"/>
</svg>
