<svg width="39" height="49" viewBox="0 0 39 49" fill="none" xmlns="http://www.w3.org/2000/svg">
<path d="M38.1751 39.4204C37.9999 35.586 35.9854 32.7948 32.4332 31.0164C30.5501 30.0726 28.5036 30.0004 26.4352 30.0534C25.4802 30.0774 24.5252 30.0582 23.4994 30.0582C23.4994 29.4162 23.5315 28.8753 23.4893 28.3376C23.454 27.8737 23.6713 27.6651 24.0654 27.4179C24.9278 26.8754 25.78 26.2927 26.5296 25.6186C27.7372 24.532 28.4716 23.1356 29.0072 21.6317C29.2531 21.6317 29.4603 21.6317 29.6675 21.6317C32.1333 21.6124 33.7975 20.0138 33.8042 17.6447C33.8109 15.5614 33.816 13.478 33.7992 11.3963C33.7857 9.65161 32.5123 8.14447 30.7151 7.76086C30.1644 7.64369 29.5849 7.64369 29.0257 7.59073C27.2572 3.23142 24.0233 0.653709 19.0309 0.679389C14.1042 0.70507 10.936 3.29722 9.17082 7.64048C9.02428 7.64048 8.84406 7.65011 8.66383 7.64048C6.39335 7.50405 4.29467 9.3322 4.3991 11.7703C4.485 13.8007 4.40583 15.8359 4.42099 17.8695C4.43447 19.6703 5.78362 21.2465 7.62291 21.5803C8.14674 21.675 8.69752 21.6413 9.23314 21.6654C10.141 24.2864 11.8186 26.251 14.3384 27.5575C14.5068 27.6458 14.6921 27.8689 14.7039 28.039C14.7476 28.6762 14.7207 29.3167 14.7207 30.0582C13.2789 30.0582 11.9079 30.0213 10.5385 30.071C9.58516 30.1047 8.6032 30.1417 7.6886 30.3744C3.087 31.5445 0.078779 35.2537 0.018143 39.7912C-0.0172281 42.4187 0.0097213 45.0477 0.0114056 47.6768C0.0114056 47.8453 0.0366706 48.0123 0.053514 48.2193H38.1649C38.1835 48.0636 38.2104 47.9448 38.2104 47.8261C38.2104 45.0237 38.3047 42.218 38.1767 39.4204H38.1751ZM19.2313 3.47217C22.0762 3.48501 24.82 5.20241 25.7413 7.58752H12.4755C13.4676 5.11093 16.2097 3.45773 19.2313 3.47217ZM8.66215 18.8229C7.73913 18.818 7.38374 18.489 7.37868 17.6143C7.36689 15.632 7.36689 13.6482 7.37868 11.6659C7.38374 10.7992 7.75092 10.4606 8.66552 10.4606C12.1504 10.4557 15.6353 10.4589 19.1202 10.4589C22.5529 10.4589 25.9872 10.4573 29.4199 10.4589C30.4962 10.4589 30.8381 10.7671 30.8431 11.7606C30.8516 13.6947 30.8516 15.6272 30.8431 17.5613C30.8381 18.4938 30.4995 18.8196 29.5378 18.8245C27.6918 18.8325 25.844 18.81 23.998 18.8357C23.3698 18.8437 22.9723 18.6254 22.7112 18.0861C22.0105 16.64 20.7809 15.876 19.1404 15.868C17.4662 15.8599 16.2181 16.6271 15.5022 18.1022C15.258 18.6046 14.8841 18.8421 14.2811 18.8341C12.4081 18.8116 10.5351 18.8325 8.66383 18.8229H8.66215ZM12.4283 21.6301C13.1054 21.6301 13.7337 21.6221 14.3619 21.6301C16.0648 21.6558 17.2523 20.9126 18.0759 19.5066C18.2847 19.1487 18.7682 18.7137 19.1202 18.7185C19.4756 18.7233 19.9388 19.1679 20.1527 19.5275C20.9679 20.8982 22.1318 21.6429 23.8026 21.6301C24.441 21.6253 25.081 21.6301 25.7413 21.6301C25.0591 23.7664 22.2867 25.6957 19.8411 25.7952C16.4067 25.9364 13.5922 24.3924 12.4266 21.6301H12.4283ZM20.4963 31.7579C20.4458 32.3759 19.9556 32.745 19.2735 32.8012C18.5475 32.8606 17.8131 32.5203 17.7609 31.9168C17.6649 30.8254 17.734 29.7195 17.734 28.6361H20.5199C20.5199 29.6971 20.5805 30.7339 20.4963 31.7595V31.7579ZM35.2662 42.9323C35.2662 43.0334 35.2477 43.1249 35.2174 43.2067V45.3848H32.4062V45.3655H29.4384L12.7871 45.3671C12.6944 45.4008 12.59 45.4217 12.4704 45.4217H5.21095C5.09304 45.4217 4.98861 45.4024 4.89598 45.3687H2.97752V42.7092H3.01121V40.0079C3.01121 39.9613 3.01626 39.9164 3.023 39.8731H2.99941C2.95057 38.061 3.57714 36.5618 4.74439 35.2666C6.22155 33.6262 8.14337 32.8718 10.3903 32.8446C11.7175 32.8285 13.0448 32.8125 14.3704 32.8638C14.6449 32.875 15.0138 33.119 15.1586 33.3566C16.0412 34.8027 17.3095 35.6293 19.0798 35.6389C20.882 35.6486 22.1823 34.8268 23.0649 33.3405C23.1912 33.127 23.4893 32.8638 23.71 32.8638C25.5038 32.859 27.3077 32.8044 29.0898 32.9665C32.4635 33.2747 35.3706 36.533 35.1837 39.6805C35.3386 40.7607 35.2746 41.8408 35.2679 42.9339L35.2662 42.9323Z" fill="white"/>
</svg>
