<svg width="268" height="54" viewBox="0 0 268 54" fill="none" xmlns="http://www.w3.org/2000/svg">
<path d="M9.8775 40V11.8H17.3975L25.9575 30.96H24.5975L33.1575 11.8H40.6775V40H32.8775V24.76H34.7975L27.5975 40H22.8375L15.6375 24.76H17.6775V40H9.8775ZM45.0216 40V19.6H53.3416V40H45.0216ZM44.9016 17.28V10H53.4616V17.28H44.9016ZM57.17 40V25.4C57.17 24.44 57.1433 23.48 57.09 22.52C57.0367 21.5333 56.9567 20.56 56.85 19.6H64.85L65.29 22.84H64.85C65.5433 21.6667 66.49 20.76 67.69 20.12C68.89 19.4533 70.2367 19.12 71.73 19.12C74.13 19.12 75.9167 19.8533 77.09 21.32C78.2633 22.76 78.85 25 78.85 28.04V40H70.53V28.36C70.53 27.2667 70.3433 26.5067 69.97 26.08C69.6233 25.6533 69.1433 25.44 68.53 25.44C67.6233 25.44 66.89 25.7467 66.33 26.36C65.77 26.9467 65.49 27.7333 65.49 28.72V40H57.17ZM90.7606 40.48C89.0273 40.48 87.4806 40.0533 86.1206 39.2C84.7606 38.3467 83.6806 37.12 82.8806 35.52C82.1073 33.92 81.7206 32.0133 81.7206 29.8C81.7206 27.5867 82.1073 25.68 82.8806 24.08C83.654 22.48 84.7206 21.2533 86.0806 20.4C87.4673 19.5467 89.0273 19.12 90.7606 19.12C92.2273 19.12 93.574 19.4533 94.8006 20.12C96.0273 20.76 96.854 21.6 97.2806 22.64H96.6806V10.56H105.001V40H96.8006V36.72H97.3606C96.9873 37.84 96.174 38.7467 94.9206 39.44C93.6673 40.1333 92.2806 40.48 90.7606 40.48ZM93.5206 34.36C94.4806 34.36 95.2806 34.0133 95.9206 33.32C96.5606 32.6267 96.8806 31.4533 96.8806 29.8C96.8806 28.1467 96.5606 26.9733 95.9206 26.28C95.2806 25.5867 94.4806 25.24 93.5206 25.24C92.5606 25.24 91.7473 25.5867 91.0806 26.28C90.4406 26.9733 90.1206 28.1467 90.1206 29.8C90.1206 31.4533 90.4406 32.6267 91.0806 33.32C91.7473 34.0133 92.5606 34.36 93.5206 34.36ZM109.25 40V11.8H123.81C127.143 11.8 129.65 12.6267 131.33 14.28C133.01 15.9067 133.85 18.1067 133.85 20.88C133.85 23.6267 133.01 25.8267 131.33 27.48C129.65 29.1333 127.143 29.96 123.81 29.96H117.89V40H109.25ZM117.89 23.4H122.65C123.663 23.4 124.41 23.1867 124.89 22.76C125.37 22.3067 125.61 21.68 125.61 20.88C125.61 20.08 125.37 19.4667 124.89 19.04C124.41 18.5867 123.663 18.36 122.65 18.36H117.89V23.4ZM136.623 40V10.56H144.943V40H136.623ZM156.812 40.48C155.079 40.48 153.533 40.0533 152.173 39.2C150.839 38.3467 149.786 37.12 149.013 35.52C148.266 33.92 147.893 32.0133 147.893 29.8C147.893 27.5867 148.266 25.68 149.013 24.08C149.786 22.48 150.839 21.2533 152.173 20.4C153.533 19.5467 155.079 19.12 156.812 19.12C158.306 19.12 159.679 19.4667 160.933 20.16C162.213 20.8533 163.039 21.76 163.413 22.88H163.013L163.493 19.6H171.493C171.386 20.56 171.306 21.5333 171.253 22.52C171.199 23.48 171.173 24.44 171.173 25.4V40H162.933L162.853 36.96H163.333C162.933 38 162.106 38.8533 160.853 39.52C159.626 40.16 158.279 40.48 156.812 40.48ZM159.613 34.36C160.599 34.36 161.399 34.0133 162.013 33.32C162.653 32.6267 162.973 31.4533 162.973 29.8C162.973 28.1467 162.653 26.9733 162.013 26.28C161.399 25.5867 160.599 25.24 159.613 25.24C158.626 25.24 157.813 25.5867 157.173 26.28C156.559 26.9733 156.253 28.1467 156.253 29.8C156.253 31.4533 156.559 32.6267 157.173 33.32C157.786 34.0133 158.599 34.36 159.613 34.36ZM175.146 49.08L173.186 42.68C174.466 42.4667 175.546 42.24 176.426 42C177.306 41.76 178.026 41.4133 178.586 40.96C179.146 40.5333 179.573 39.96 179.866 39.24L180.866 36.96L180.666 40L171.786 19.6H180.506L185.106 31.8H183.666L188.506 19.6H196.666L187.586 40.08C186.813 41.8133 185.986 43.2267 185.106 44.32C184.253 45.4133 183.32 46.2667 182.306 46.88C181.293 47.52 180.2 47.9867 179.026 48.28C177.853 48.6 176.56 48.8667 175.146 49.08Z" fill="#695AC8"/>
<path d="M203 32.5866C203 25.7332 208.233 20.0141 215.06 19.4073L224.396 18.5774C230.287 18.0538 236.213 18.0538 242.104 18.5774L251.433 19.4066C258.263 20.0138 263.5 25.7365 263.5 32.5942V32.5942C263.5 37.5406 260.743 42.0744 256.351 44.3498L252.55 46.3187C246.928 49.2314 240.011 47.5356 236.359 42.3625V42.3625C234.847 40.2203 231.665 40.2203 230.16 42.3678V42.3678C226.536 47.5418 219.644 49.2395 214.031 46.3413L210.161 44.3433C205.763 42.0725 203 37.5365 203 32.5866V32.5866Z" stroke="#695AC8" stroke-width="4"/>
<circle cx="222.594" cy="35.6483" r="4.01692" stroke="#695AC8" stroke-width="4"/>
<circle cx="243.906" cy="35.6483" r="4.01692" stroke="#695AC8" stroke-width="4"/>
<path d="M209.05 21.4778C213.083 9.37778 223.839 4 233.25 4C242.661 4 253.417 9.37778 257.45 21.4778" stroke="#695AC8" stroke-width="4" stroke-linecap="round"/>
<path d="M233.25 31.5965C232.879 31.5965 232.578 31.2956 232.578 30.9243C232.578 30.553 232.879 30.2521 233.25 30.2521" stroke="#695AC8" stroke-width="4"/>
<path d="M233.25 31.5965C233.621 31.5965 233.922 31.2955 233.922 30.9242C233.922 30.553 233.621 30.252 233.25 30.252" stroke="#695AC8" stroke-width="4"/>
</svg>
