<?xml version="1.0" encoding="UTF-8"?>
<svg id="logoMindPlay" xmlns="http://www.w3.org/2000/svg" viewBox="0 0 1200 350">
  <defs>
    <style>
      .cls-1 {
        fill: #695ac8;
      }
    </style>
  </defs>
  <g>
    <polygon class="cls-1" points="160.25 188.97 129.42 119.96 100 119.96 100 230.28 130.51 230.28 130.51 187.56 150.7 230.28 169.32 230.28 189.98 186.56 189.98 230.28 220.49 230.28 220.49 119.96 191.07 119.96 160.25 188.97"/>
    <path class="cls-1" d="m341.97,148.6c-5.84,0-11.11,1.3-15.8,3.91-3.94,2.1-7.13,4.98-9.67,8.54l-1.44-10.57h-31.3c.42,3.76.73,7.56.94,11.42.21,3.76.31,7.51.31,11.27v57.12h32.55v-44.13c0-3.86,1.1-6.94,3.29-9.23,2.19-2.4,5.06-3.6,8.61-3.6,2.4,0,4.28.83,5.63,2.5,1.46,1.67,2.19,4.64,2.19,8.92v45.54h32.55v-46.79c0-11.89-2.3-20.66-6.88-26.29-4.59-5.74-11.58-8.61-20.97-8.61Z"/>
    <rect class="cls-1" x="237.02" y="112.92" width="33.49" height="28.48"/>
    <rect class="cls-1" x="237.48" y="150.48" width="32.55" height="79.81"/>
    <path class="cls-1" d="m798.8,150.48l-16.05,40.45-15.25-40.45h-34.11l32.53,74.73-.92,2.1c-1.15,2.82-2.82,5.06-5.01,6.73-2.19,1.77-5.01,3.13-8.45,4.07s-7.67,1.83-12.67,2.66l7.67,25.04c5.53-.83,10.59-1.88,15.18-3.13,4.59-1.15,8.87-2.97,12.83-5.48,3.97-2.4,7.62-5.74,10.95-10.01,3.44-4.28,6.68-9.81,9.7-16.59l35.52-80.12h-31.92Z"/>
    <path class="cls-1" d="m699.45,160.71c-1.74-3.2-4.55-5.9-8.52-8.05-4.91-2.71-10.28-4.07-16.12-4.07-6.78,0-12.83,1.67-18.15,5.01-5.22,3.34-9.34,8.14-12.36,14.4-2.92,6.26-4.38,13.72-4.38,22.38s1.46,16.12,4.38,22.38c3.02,6.26,7.14,11.06,12.36,14.4,5.32,3.34,11.37,5.01,18.15,5.01,5.74,0,11.01-1.25,15.81-3.76,3.5-1.86,6.11-4.11,7.91-6.72l.23,8.6h32.24v-57.12c0-3.76.1-7.51.31-11.27.21-3.86.52-7.67.94-11.42h-31.3l-1.5,10.24Zm-4.29,43.44c-2.4,2.71-5.53,4.07-9.39,4.07s-7.15-1.36-9.55-4.07c-2.4-2.71-3.6-7.3-3.6-13.77s1.2-11.06,3.6-13.77c2.5-2.71,5.68-4.07,9.55-4.07s6.99,1.36,9.39,4.07c2.5,2.71,3.76,7.3,3.76,13.77s-1.25,11.06-3.76,13.77Z"/>
    <rect class="cls-1" x="595.83" y="115.11" width="32.55" height="115.17"/>
    <path class="cls-1" d="m545.71,119.96h-56.96v110.32h33.8v-39.28h23.16c13.04,0,22.85-3.23,29.42-9.7,6.57-6.47,9.86-15.07,9.86-25.82s-3.29-19.46-9.86-25.82c-6.57-6.47-16.38-9.7-29.42-9.7Zm4.23,42.88c-1.88,1.67-4.8,2.5-8.76,2.5h-18.62v-19.72h18.62c3.96,0,6.89.89,8.76,2.66,1.88,1.67,2.82,4.07,2.82,7.2s-.94,5.58-2.82,7.35Z"/>
    <path class="cls-1" d="m439.58,158.48c-1.8-2.32-4.21-4.33-7.35-5.97-4.8-2.61-10.07-3.91-15.8-3.91-6.78,0-12.88,1.67-18.31,5.01-5.32,3.34-9.49,8.14-12.52,14.4-3.03,6.26-4.54,13.72-4.54,22.38s1.51,16.12,4.54,22.38c3.13,6.26,7.35,11.06,12.67,14.4s11.37,5.01,18.15,5.01c5.95,0,11.37-1.36,16.27-4.07,3.22-1.78,5.62-3.96,7.35-6.46v8.65h32.08v-115.17h-32.55v43.37Zm-2.97,45.67c-2.5,2.71-5.63,4.07-9.39,4.07s-6.94-1.36-9.55-4.07c-2.5-2.71-3.76-7.3-3.76-13.77s1.25-11.06,3.76-13.77c2.61-2.71,5.79-4.07,9.55-4.07s6.88,1.36,9.39,4.07,3.76,7.3,3.76,13.77-1.25,11.06-3.76,13.77Z"/>
  </g>
  <g>
    <path class="cls-1" d="m1074.9,152.65c-18.83-52.29-65.92-71.02-101.06-71.02s-82.22,18.73-101.05,71.01c-15.29,10.79-25.11,28.53-25.11,48.65,0,22.38,12.35,42.67,32.25,52.95l15.14,7.82c8.29,4.28,17.24,6.33,26.09,6.33,18.19,0,36.01-8.64,47-24.34,1.32-1.88,3.4-2.96,5.71-2.97h.01c2.31,0,4.4,1.08,5.73,2.97,16.47,23.33,47.99,31.03,73.33,17.91l14.87-7.71c19.85-10.28,32.19-30.57,32.19-52.93,0-20.12-9.81-37.86-25.1-48.66Zm-101.06-55.38c26.46,0,60.86,12.42,79.68,45.93-2.56-.57-5.17-1.04-7.86-1.28l-36.5-3.24c-23.44-2.09-47.22-2.09-70.66,0l-36.52,3.25c-2.68.24-5.27.71-7.83,1.27,18.82-33.51,53.22-45.93,79.68-45.93Zm86.78,143.08l-14.87,7.71c-18.43,9.55-41.36,3.94-53.35-13.04-4.24-6.01-11.16-9.59-18.52-9.59h-.04c-7.36.01-14.28,3.61-18.49,9.64-11.88,16.96-34.71,22.58-53.1,13.08l-15.14-7.82c-14.67-7.58-23.78-22.54-23.78-39.04,0-15.33,7.73-28.8,19.66-36.66.39-.22.77-.46,1.11-.75,5.65-3.48,12.19-5.73,19.27-6.36l36.52-3.25c11.26-1,22.6-1.5,33.94-1.5s22.69.5,33.95,1.5l36.5,3.24c7.18.64,13.79,2.94,19.5,6.49.16.13.33.23.5.35,12.17,7.83,20.07,21.44,20.07,36.96,0,16.49-9.1,31.45-23.74,39.04Z"/>
    <path class="cls-1" d="m932.15,189.72c-12.98,0-23.54,10.56-23.54,23.54s10.56,23.54,23.54,23.54,23.54-10.56,23.54-23.54-10.56-23.54-23.54-23.54Zm0,31.43c-4.35,0-7.89-3.54-7.89-7.89s3.54-7.89,7.89-7.89,7.89,3.54,7.89,7.89-3.54,7.89-7.89,7.89Z"/>
    <path class="cls-1" d="m1015.52,189.72c-12.98,0-23.54,10.56-23.54,23.54s10.56,23.54,23.54,23.54,23.54-10.56,23.54-23.54-10.56-23.54-23.54-23.54Zm0,31.43c-4.35,0-7.89-3.54-7.89-7.89s3.54-7.89,7.89-7.89,7.89,3.54,7.89,7.89-3.54,7.89-7.89,7.89Z"/>
    <path class="cls-1" d="m973.84,184.33c-5.76,0-10.45,4.69-10.45,10.45s4.69,10.46,10.45,10.46,10.46-4.69,10.46-10.46-4.69-10.45-10.46-10.45Z"/>
  </g>
</svg>